solid Case top half
facet normal 0.0 0.0 -1.0
  outer loop
    vertex -1.9999999999999998 30.0 0.0
    vertex 0.0 28.0 0.0
    vertex -1.9999999999999998 -1.9999999999999998 0.0
  endloop
endfacet
facet normal 0.0 0.0 -1.0
  outer loop
    vertex 0.0 28.0 0.0
    vertex -1.9999999999999998 30.0 0.0
    vertex 65.0 30.0 0.0
  endloop
endfacet
facet normal 0.0 0.0 -1.0
  outer loop
    vertex 0.0 28.0 0.0
    vertex 65.0 30.0 0.0
    vertex 63.0 28.0 0.0
  endloop
endfacet
facet normal 0.0 0.0 -1.0
  outer loop
    vertex 63.0 28.0 0.0
    vertex 65.0 30.0 0.0
    vertex 63.0 0.0 0.0
  endloop
endfacet
facet normal 0.0 0.0 -1.0
  outer loop
    vertex -1.9999999999999998 -1.9999999999999998 0.0
    vertex 0.0 0.0 0.0
    vertex 65.0 -1.9999999999999998 0.0
  endloop
endfacet
facet normal 0.0 0.0 -1.0
  outer loop
    vertex 0.0 0.0 0.0
    vertex -1.9999999999999998 -1.9999999999999998 0.0
    vertex 0.0 28.0 0.0
  endloop
endfacet
facet normal 0.0 0.0 -1.0
  outer loop
    vertex 65.0 -1.9999999999999998 0.0
    vertex 0.0 0.0 0.0
    vertex 63.0 0.0 0.0
  endloop
endfacet
facet normal 0.0 0.0 -1.0
  outer loop
    vertex 65.0 -1.9999999999999998 0.0
    vertex 63.0 0.0 0.0
    vertex 65.0 30.0 0.0
  endloop
endfacet
facet normal -0.0 -0.0 1.0
  outer loop
    vertex 63.0 0.0 1.9999999999999998
    vertex 0.0 28.0 1.9999999999999998
    vertex 0.0 0.0 1.9999999999999998
  endloop
endfacet
facet normal -0.0 -0.0 1.0
  outer loop
    vertex 0.0 28.0 1.9999999999999998
    vertex 63.0 0.0 1.9999999999999998
    vertex 41.73013383251961 11.666460733274281 1.9999999999999998
  endloop
endfacet
facet normal -0.0 -0.0 1.0
  outer loop
    vertex 41.73013383251961 11.666460733274281 1.9999999999999998
    vertex 63.0 0.0 1.9999999999999998
    vertex 54.730133832519584 11.666460733274281 1.9999999999999998
  endloop
endfacet
facet normal -0.0 -0.0 1.0
  outer loop
    vertex 54.730133832519584 11.666460733274281 1.9999999999999998
    vertex 63.0 0.0 1.9999999999999998
    vertex 54.730133832519584 17.66646073327428 1.9999999999999998
  endloop
endfacet
facet normal -0.0 -0.0 1.0
  outer loop
    vertex 0.0 28.0 1.9999999999999998
    vertex 41.73013383251961 17.66646073327428 1.9999999999999998
    vertex 63.0 28.0 1.9999999999999998
  endloop
endfacet
facet normal -0.0 -0.0 1.0
  outer loop
    vertex 41.73013383251961 17.66646073327428 1.9999999999999998
    vertex 0.0 28.0 1.9999999999999998
    vertex 41.73013383251961 11.666460733274281 1.9999999999999998
  endloop
endfacet
facet normal -0.0 -0.0 1.0
  outer loop
    vertex 63.0 28.0 1.9999999999999998
    vertex 41.73013383251961 17.66646073327428 1.9999999999999998
    vertex 54.730133832519584 17.66646073327428 1.9999999999999998
  endloop
endfacet
facet normal -0.0 -0.0 1.0
  outer loop
    vertex 63.0 28.0 1.9999999999999998
    vertex 54.730133832519584 17.66646073327428 1.9999999999999998
    vertex 63.0 0.0 1.9999999999999998
  endloop
endfacet
facet normal -0.0 -0.0 1.0
  outer loop
    vertex -1.9999999999999998 -1.9999999999999998 25.0
    vertex 0.0 0.0 25.0
    vertex -1.9999999999999998 30.0 25.0
  endloop
endfacet
facet normal -0.0 -0.0 1.0
  outer loop
    vertex 0.0 0.0 25.0
    vertex -1.9999999999999998 -1.9999999999999998 25.0
    vertex 65.0 -1.9999999999999998 25.0
  endloop
endfacet
facet normal -0.0 -0.0 1.0
  outer loop
    vertex 0.0 0.0 25.0
    vertex 65.0 -1.9999999999999998 25.0
    vertex 63.0 0.0 25.0
  endloop
endfacet
facet normal -0.0 -0.0 1.0
  outer loop
    vertex 63.0 0.0 25.0
    vertex 65.0 -1.9999999999999998 25.0
    vertex 63.0 28.0 25.0
  endloop
endfacet
facet normal -0.0 -0.0 1.0
  outer loop
    vertex -1.9999999999999998 30.0 25.0
    vertex 0.0 28.0 25.0
    vertex 65.0 30.0 25.0
  endloop
endfacet
facet normal -0.0 -0.0 1.0
  outer loop
    vertex 0.0 28.0 25.0
    vertex -1.9999999999999998 30.0 25.0
    vertex 0.0 0.0 25.0
  endloop
endfacet
facet normal -0.0 -0.0 1.0
  outer loop
    vertex 65.0 30.0 25.0
    vertex 0.0 28.0 25.0
    vertex 63.0 28.0 25.0
  endloop
endfacet
facet normal -0.0 -0.0 1.0
  outer loop
    vertex 65.0 30.0 25.0
    vertex 63.0 28.0 25.0
    vertex 65.0 -1.9999999999999998 25.0
  endloop
endfacet
facet normal 1.0 -0.0 -0.0
  outer loop
    vertex 65.0 30.0 0.0
    vertex 65.0 -1.9999999999999998 25.0
    vertex 65.0 -1.9999999999999998 0.0
  endloop
endfacet
facet normal 1.0 -0.0 -0.0
  outer loop
    vertex 65.0 -1.9999999999999998 25.0
    vertex 65.0 30.0 0.0
    vertex 65.0 30.0 25.0
  endloop
endfacet
facet normal 0.0 -1.0 0.0
  outer loop
    vertex 65.0 -1.9999999999999998 25.0
    vertex -1.9999999999999998 -1.9999999999999998 0.0
    vertex 65.0 -1.9999999999999998 0.0
  endloop
endfacet
facet normal 0.0 -1.0 0.0
  outer loop
    vertex -1.9999999999999998 -1.9999999999999998 0.0
    vertex 65.0 -1.9999999999999998 25.0
    vertex -1.9999999999999998 -1.9999999999999998 25.0
  endloop
endfacet
facet normal -1.0 0.0 0.0
  outer loop
    vertex -1.9999999999999998 30.0 25.0
    vertex -1.9999999999999998 -1.9999999999999998 0.0
    vertex -1.9999999999999998 -1.9999999999999998 25.0
  endloop
endfacet
facet normal -1.0 0.0 0.0
  outer loop
    vertex -1.9999999999999998 -1.9999999999999998 0.0
    vertex -1.9999999999999998 30.0 25.0
    vertex -1.9999999999999998 30.0 0.0
  endloop
endfacet
facet normal -0.0 1.0 -0.0
  outer loop
    vertex -1.9999999999999998 30.0 0.0
    vertex 4.782839679165345 29.99999999999999 5.330723370132746
    vertex 65.0 30.0 0.0
  endloop
endfacet
facet normal -0.0 1.0 -0.0
  outer loop
    vertex 4.782839679165345 29.99999999999999 5.330723370132746
    vertex -1.9999999999999998 30.0 0.0
    vertex -1.9999999999999998 30.0 25.0
  endloop
endfacet
facet normal -0.0 1.0 -0.0
  outer loop
    vertex 4.782839679165345 29.99999999999999 5.330723370132746
    vertex -1.9999999999999998 30.0 25.0
    vertex 4.782839679165345 29.99999999999999 11.107406370132745
  endloop
endfacet
facet normal -0.0 1.0 -0.0
  outer loop
    vertex 4.782839679165345 29.99999999999999 11.107406370132745
    vertex -1.9999999999999998 30.0 25.0
    vertex 6.639630679165345 29.99999999999999 11.107406370132745
  endloop
endfacet
facet normal -0.0 1.0 -0.0
  outer loop
    vertex 6.639630679165345 29.99999999999999 11.107406370132745
    vertex -1.9999999999999998 30.0 25.0
    vertex 7.568026283574191 29.99999999999998 11.107406370132745
  endloop
endfacet
facet normal -0.0 1.0 -0.0
  outer loop
    vertex 7.568026283574191 29.99999999999998 11.107406370132745
    vertex -1.9999999999999998 30.0 25.0
    vertex 9.424817283574193 29.99999999999998 11.107406370132745
  endloop
endfacet
facet normal -0.0 1.0 -0.0
  outer loop
    vertex 9.424817283574193 29.99999999999998 11.107406370132745
    vertex -1.9999999999999998 30.0 25.0
    vertex 10.456367947405614 29.99999999999998 11.107406370132747
  endloop
endfacet
facet normal -0.0 1.0 -0.0
  outer loop
    vertex 10.456367947405614 29.99999999999998 11.107406370132747
    vertex -1.9999999999999998 30.0 25.0
    vertex 12.313158947405615 29.99999999999998 11.107406370132747
  endloop
endfacet
facet normal -0.0 1.0 -0.0
  outer loop
    vertex 65.0 30.0 0.0
    vertex 12.313158947405615 29.99999999999998 5.330723370132747
    vertex 65.0 30.0 25.0
  endloop
endfacet
facet normal -0.0 1.0 -0.0
  outer loop
    vertex 12.313158947405615 29.99999999999998 5.330723370132747
    vertex 65.0 30.0 0.0
    vertex 9.424817283574193 29.99999999999998 5.330723370132746
  endloop
endfacet
facet normal -0.0 1.0 -0.0
  outer loop
    vertex 9.424817283574193 29.99999999999998 5.330723370132746
    vertex 65.0 30.0 0.0
    vertex 4.782839679165345 29.99999999999999 5.330723370132746
  endloop
endfacet
facet normal -0.0 1.0 -0.0
  outer loop
    vertex 9.424817283574193 29.99999999999998 5.330723370132746
    vertex 4.782839679165345 29.99999999999999 5.330723370132746
    vertex 6.639630679165345 29.99999999999999 5.330723370132746
  endloop
endfacet
facet normal -0.0 1.0 -0.0
  outer loop
    vertex 9.424817283574193 29.99999999999998 5.330723370132746
    vertex 6.639630679165345 29.99999999999999 5.330723370132746
    vertex 7.568026283574191 29.99999999999998 5.330723370132746
  endloop
endfacet
facet normal -0.0 1.0 -0.0
  outer loop
    vertex 12.313158947405615 29.99999999999998 5.330723370132747
    vertex 9.424817283574193 29.99999999999998 5.330723370132746
    vertex 10.456367947405614 29.99999999999998 5.330723370132747
  endloop
endfacet
facet normal -0.0 1.0 -0.0
  outer loop
    vertex 65.0 30.0 25.0
    vertex 12.313158947405615 29.99999999999998 5.330723370132747
    vertex 12.313158947405615 29.99999999999998 11.107406370132747
  endloop
endfacet
facet normal -0.0 1.0 -0.0
  outer loop
    vertex 65.0 30.0 25.0
    vertex 12.313158947405615 29.99999999999998 11.107406370132747
    vertex -1.9999999999999998 30.0 25.0
  endloop
endfacet
facet normal -0.0 1.0 -0.0
  outer loop
    vertex 9.424817283574193 29.99999999999998 11.107406370132745
    vertex 10.456367947405614 29.99999999999998 5.330723370132747
    vertex 9.424817283574193 29.99999999999998 5.330723370132746
  endloop
endfacet
facet normal -0.0 1.0 -0.0
  outer loop
    vertex 10.456367947405614 29.99999999999998 5.330723370132747
    vertex 9.424817283574193 29.99999999999998 11.107406370132745
    vertex 10.456367947405614 29.99999999999998 11.107406370132747
  endloop
endfacet
facet normal -0.0 1.0 -0.0
  outer loop
    vertex 6.639630679165345 29.99999999999999 11.107406370132745
    vertex 7.568026283574191 29.99999999999998 5.330723370132746
    vertex 6.639630679165345 29.99999999999999 5.330723370132746
  endloop
endfacet
facet normal -0.0 1.0 -0.0
  outer loop
    vertex 7.568026283574191 29.99999999999998 5.330723370132746
    vertex 6.639630679165345 29.99999999999999 11.107406370132745
    vertex 7.568026283574191 29.99999999999998 11.107406370132745
  endloop
endfacet
facet normal -1.0 0.0 0.0
  outer loop
    vertex 63.0 28.0 25.0
    vertex 63.0 0.0 1.9999999999999998
    vertex 63.0 0.0 25.0
  endloop
endfacet
facet normal -1.0 0.0 0.0
  outer loop
    vertex 63.0 0.0 1.9999999999999998
    vertex 63.0 28.0 25.0
    vertex 63.0 28.0 1.9999999999999998
  endloop
endfacet
facet normal 1.0 -0.0 -0.0
  outer loop
    vertex 0.0 28.0 1.9999999999999998
    vertex 0.0 0.0 25.0
    vertex 0.0 0.0 1.9999999999999998
  endloop
endfacet
facet normal 1.0 -0.0 -0.0
  outer loop
    vertex 0.0 0.0 25.0
    vertex 0.0 28.0 1.9999999999999998
    vertex 0.0 28.0 25.0
  endloop
endfacet
facet normal -0.0 1.0 -0.0
  outer loop
    vertex 0.0 0.0 25.0
    vertex 63.0 0.0 1.9999999999999998
    vertex 0.0 0.0 1.9999999999999998
  endloop
endfacet
facet normal -0.0 1.0 -0.0
  outer loop
    vertex 63.0 0.0 1.9999999999999998
    vertex 0.0 0.0 25.0
    vertex 63.0 0.0 25.0
  endloop
endfacet
facet normal -0.0 -0.0 1.0
  outer loop
    vertex 12.313158947405615 28.0 5.330723370132747
    vertex 10.456367947405614 29.99999999999998 5.330723370132747
    vertex 10.456367947405614 28.0 5.330723370132747
  endloop
endfacet
facet normal -0.0 -0.0 1.0
  outer loop
    vertex 10.456367947405614 29.99999999999998 5.330723370132747
    vertex 12.313158947405615 28.0 5.330723370132747
    vertex 12.313158947405615 29.99999999999998 5.330723370132747
  endloop
endfacet
facet normal -0.0 -0.0 1.0
  outer loop
    vertex 9.424817283574193 28.0 5.330723370132746
    vertex 7.568026283574191 29.99999999999998 5.330723370132746
    vertex 7.568026283574191 28.0 5.330723370132746
  endloop
endfacet
facet normal -0.0 -0.0 1.0
  outer loop
    vertex 7.568026283574191 29.99999999999998 5.330723370132746
    vertex 9.424817283574193 28.0 5.330723370132746
    vertex 9.424817283574193 29.99999999999998 5.330723370132746
  endloop
endfacet
facet normal 0.0 0.0 -1.0
  outer loop
    vertex 63.0 28.0 0.0
    vertex 0.0 0.0 0.0
    vertex 0.0 28.0 0.0
  endloop
endfacet
facet normal 0.0 0.0 -1.0
  outer loop
    vertex 0.0 0.0 0.0
    vertex 63.0 28.0 0.0
    vertex 41.73013383251961 17.66646073327428 0.0
  endloop
endfacet
facet normal 0.0 0.0 -1.0
  outer loop
    vertex 41.73013383251961 17.66646073327428 0.0
    vertex 63.0 28.0 0.0
    vertex 54.730133832519584 17.66646073327428 0.0
  endloop
endfacet
facet normal 0.0 0.0 -1.0
  outer loop
    vertex 54.730133832519584 17.66646073327428 0.0
    vertex 63.0 28.0 0.0
    vertex 54.730133832519584 11.666460733274281 0.0
  endloop
endfacet
facet normal 0.0 0.0 -1.0
  outer loop
    vertex 0.0 0.0 0.0
    vertex 41.73013383251961 11.666460733274281 0.0
    vertex 63.0 0.0 0.0
  endloop
endfacet
facet normal 0.0 0.0 -1.0
  outer loop
    vertex 41.73013383251961 11.666460733274281 0.0
    vertex 0.0 0.0 0.0
    vertex 41.73013383251961 17.66646073327428 0.0
  endloop
endfacet
facet normal 0.0 0.0 -1.0
  outer loop
    vertex 63.0 0.0 0.0
    vertex 41.73013383251961 11.666460733274281 0.0
    vertex 54.730133832519584 11.666460733274281 0.0
  endloop
endfacet
facet normal 0.0 0.0 -1.0
  outer loop
    vertex 63.0 0.0 0.0
    vertex 54.730133832519584 11.666460733274281 0.0
    vertex 63.0 28.0 0.0
  endloop
endfacet
facet normal 1.0 -0.0 -0.0
  outer loop
    vertex 10.456367947405614 29.99999999999998 5.330723370132747
    vertex 10.456367947405614 28.0 11.107406370132747
    vertex 10.456367947405614 28.0 5.330723370132747
  endloop
endfacet
facet normal 1.0 -0.0 -0.0
  outer loop
    vertex 10.456367947405614 28.0 11.107406370132747
    vertex 10.456367947405614 29.99999999999998 5.330723370132747
    vertex 10.456367947405614 29.99999999999998 11.107406370132747
  endloop
endfacet
facet normal 0.0 0.0 -1.0
  outer loop
    vertex 12.313158947405615 29.99999999999998 11.107406370132747
    vertex 10.456367947405614 28.0 11.107406370132747
    vertex 10.456367947405614 29.99999999999998 11.107406370132747
  endloop
endfacet
facet normal 0.0 0.0 -1.0
  outer loop
    vertex 10.456367947405614 28.0 11.107406370132747
    vertex 12.313158947405615 29.99999999999998 11.107406370132747
    vertex 12.313158947405615 28.0 11.107406370132747
  endloop
endfacet
facet normal -1.0 0.0 0.0
  outer loop
    vertex 12.313158947405615 29.99999999999998 11.107406370132747
    vertex 12.313158947405615 28.0 5.330723370132747
    vertex 12.313158947405615 28.0 11.107406370132747
  endloop
endfacet
facet normal -1.0 0.0 0.0
  outer loop
    vertex 12.313158947405615 28.0 5.330723370132747
    vertex 12.313158947405615 29.99999999999998 11.107406370132747
    vertex 12.313158947405615 29.99999999999998 5.330723370132747
  endloop
endfacet
facet normal 0.0 0.0 -1.0
  outer loop
    vertex 9.424817283574193 29.99999999999998 11.107406370132745
    vertex 7.568026283574191 28.0 11.107406370132745
    vertex 7.568026283574191 29.99999999999998 11.107406370132745
  endloop
endfacet
facet normal 0.0 0.0 -1.0
  outer loop
    vertex 7.568026283574191 28.0 11.107406370132745
    vertex 9.424817283574193 29.99999999999998 11.107406370132745
    vertex 9.424817283574193 28.0 11.107406370132745
  endloop
endfacet
facet normal -1.0 0.0 0.0
  outer loop
    vertex 9.424817283574193 29.99999999999998 11.107406370132745
    vertex 9.424817283574193 28.0 5.330723370132746
    vertex 9.424817283574193 28.0 11.107406370132745
  endloop
endfacet
facet normal -1.0 0.0 0.0
  outer loop
    vertex 9.424817283574193 28.0 5.330723370132746
    vertex 9.424817283574193 29.99999999999998 11.107406370132745
    vertex 9.424817283574193 29.99999999999998 5.330723370132746
  endloop
endfacet
facet normal -0.0 -0.0 1.0
  outer loop
    vertex 6.639630679165345 28.0 5.330723370132746
    vertex 4.782839679165345 29.99999999999999 5.330723370132746
    vertex 4.782839679165345 28.0 5.330723370132746
  endloop
endfacet
facet normal -0.0 -0.0 1.0
  outer loop
    vertex 4.782839679165345 29.99999999999999 5.330723370132746
    vertex 6.639630679165345 28.0 5.330723370132746
    vertex 6.639630679165345 29.99999999999999 5.330723370132746
  endloop
endfacet
facet normal 1.0 -0.0 -0.0
  outer loop
    vertex 4.782839679165345 29.99999999999999 5.330723370132746
    vertex 4.782839679165345 28.0 11.107406370132745
    vertex 4.782839679165345 28.0 5.330723370132746
  endloop
endfacet
facet normal 1.0 -0.0 -0.0
  outer loop
    vertex 4.782839679165345 28.0 11.107406370132745
    vertex 4.782839679165345 29.99999999999999 5.330723370132746
    vertex 4.782839679165345 29.99999999999999 11.107406370132745
  endloop
endfacet
facet normal 0.0 0.0 -1.0
  outer loop
    vertex 6.639630679165345 29.99999999999999 11.107406370132745
    vertex 4.782839679165345 28.0 11.107406370132745
    vertex 4.782839679165345 29.99999999999999 11.107406370132745
  endloop
endfacet
facet normal 0.0 0.0 -1.0
  outer loop
    vertex 4.782839679165345 28.0 11.107406370132745
    vertex 6.639630679165345 29.99999999999999 11.107406370132745
    vertex 6.639630679165345 28.0 11.107406370132745
  endloop
endfacet
facet normal -1.0 0.0 0.0
  outer loop
    vertex 6.639630679165345 29.99999999999999 11.107406370132745
    vertex 6.639630679165345 28.0 5.330723370132746
    vertex 6.639630679165345 28.0 11.107406370132745
  endloop
endfacet
facet normal -1.0 0.0 0.0
  outer loop
    vertex 6.639630679165345 28.0 5.330723370132746
    vertex 6.639630679165345 29.99999999999999 11.107406370132745
    vertex 6.639630679165345 29.99999999999999 5.330723370132746
  endloop
endfacet
facet normal 0.0 -1.0 0.0
  outer loop
    vertex 9.424817283574193 28.0 5.330723370132746
    vertex 10.456367947405614 28.0 5.330723370132747
    vertex 9.424817283574193 28.0 11.107406370132745
  endloop
endfacet
facet normal 0.0 -1.0 0.0
  outer loop
    vertex 10.456367947405614 28.0 5.330723370132747
    vertex 9.424817283574193 28.0 5.330723370132746
    vertex 12.313158947405615 28.0 5.330723370132747
  endloop
endfacet
facet normal 0.0 -1.0 0.0
  outer loop
    vertex 9.424817283574193 28.0 11.107406370132745
    vertex 10.456367947405614 28.0 5.330723370132747
    vertex 10.456367947405614 28.0 11.107406370132747
  endloop
endfacet
facet normal 0.0 -1.0 0.0
  outer loop
    vertex 9.424817283574193 28.0 11.107406370132745
    vertex 10.456367947405614 28.0 11.107406370132747
    vertex 7.568026283574191 28.0 11.107406370132745
  endloop
endfacet
facet normal 0.0 -1.0 0.0
  outer loop
    vertex 7.568026283574191 28.0 11.107406370132745
    vertex 10.456367947405614 28.0 11.107406370132747
    vertex 6.639630679165345 28.0 11.107406370132745
  endloop
endfacet
facet normal 0.0 -1.0 0.0
  outer loop
    vertex 6.639630679165345 28.0 11.107406370132745
    vertex 10.456367947405614 28.0 11.107406370132747
    vertex 4.782839679165345 28.0 11.107406370132745
  endloop
endfacet
facet normal 0.0 -1.0 0.0
  outer loop
    vertex 63.0 28.0 1.9999999999999998
    vertex 12.313158947405615 28.0 5.330723370132747
    vertex 0.0 28.0 1.9999999999999998
  endloop
endfacet
facet normal 0.0 -1.0 0.0
  outer loop
    vertex 12.313158947405615 28.0 5.330723370132747
    vertex 63.0 28.0 1.9999999999999998
    vertex 63.0 28.0 25.0
  endloop
endfacet
facet normal 0.0 -1.0 0.0
  outer loop
    vertex 0.0 28.0 1.9999999999999998
    vertex 12.313158947405615 28.0 5.330723370132747
    vertex 9.424817283574193 28.0 5.330723370132746
  endloop
endfacet
facet normal 0.0 -1.0 0.0
  outer loop
    vertex 12.313158947405615 28.0 5.330723370132747
    vertex 63.0 28.0 25.0
    vertex 12.313158947405615 28.0 11.107406370132747
  endloop
endfacet
facet normal 0.0 -1.0 0.0
  outer loop
    vertex 12.313158947405615 28.0 11.107406370132747
    vertex 63.0 28.0 25.0
    vertex 10.456367947405614 28.0 11.107406370132747
  endloop
endfacet
facet normal 0.0 -1.0 0.0
  outer loop
    vertex 0.0 28.0 1.9999999999999998
    vertex 4.782839679165345 28.0 5.330723370132746
    vertex 0.0 28.0 25.0
  endloop
endfacet
facet normal 0.0 -1.0 0.0
  outer loop
    vertex 4.782839679165345 28.0 5.330723370132746
    vertex 0.0 28.0 1.9999999999999998
    vertex 9.424817283574193 28.0 5.330723370132746
  endloop
endfacet
facet normal 0.0 -1.0 0.0
  outer loop
    vertex 4.782839679165345 28.0 5.330723370132746
    vertex 9.424817283574193 28.0 5.330723370132746
    vertex 7.568026283574191 28.0 5.330723370132746
  endloop
endfacet
facet normal 0.0 -1.0 0.0
  outer loop
    vertex 4.782839679165345 28.0 5.330723370132746
    vertex 7.568026283574191 28.0 5.330723370132746
    vertex 6.639630679165345 28.0 5.330723370132746
  endloop
endfacet
facet normal 0.0 -1.0 0.0
  outer loop
    vertex 0.0 28.0 25.0
    vertex 4.782839679165345 28.0 5.330723370132746
    vertex 4.782839679165345 28.0 11.107406370132745
  endloop
endfacet
facet normal 0.0 -1.0 0.0
  outer loop
    vertex 0.0 28.0 25.0
    vertex 4.782839679165345 28.0 11.107406370132745
    vertex 10.456367947405614 28.0 11.107406370132747
  endloop
endfacet
facet normal 0.0 -1.0 0.0
  outer loop
    vertex 0.0 28.0 25.0
    vertex 10.456367947405614 28.0 11.107406370132747
    vertex 63.0 28.0 25.0
  endloop
endfacet
facet normal 0.0 -1.0 0.0
  outer loop
    vertex 7.568026283574191 28.0 11.107406370132745
    vertex 6.639630679165345 28.0 5.330723370132746
    vertex 7.568026283574191 28.0 5.330723370132746
  endloop
endfacet
facet normal 0.0 -1.0 0.0
  outer loop
    vertex 6.639630679165345 28.0 5.330723370132746
    vertex 7.568026283574191 28.0 11.107406370132745
    vertex 6.639630679165345 28.0 11.107406370132745
  endloop
endfacet
facet normal 1.0 -0.0 -0.0
  outer loop
    vertex 7.568026283574191 29.99999999999998 5.330723370132746
    vertex 7.568026283574191 28.0 11.107406370132745
    vertex 7.568026283574191 28.0 5.330723370132746
  endloop
endfacet
facet normal 1.0 -0.0 -0.0
  outer loop
    vertex 7.568026283574191 28.0 11.107406370132745
    vertex 7.568026283574191 29.99999999999998 5.330723370132746
    vertex 7.568026283574191 29.99999999999998 11.107406370132745
  endloop
endfacet
facet normal 1.0 -0.0 -0.0
  outer loop
    vertex 41.73013383251961 17.66646073327428 0.0
    vertex 41.73013383251961 11.666460733274281 1.9999999999999998
    vertex 41.73013383251961 11.666460733274281 0.0
  endloop
endfacet
facet normal 1.0 -0.0 -0.0
  outer loop
    vertex 41.73013383251961 11.666460733274281 1.9999999999999998
    vertex 41.73013383251961 17.66646073327428 0.0
    vertex 41.73013383251961 17.66646073327428 1.9999999999999998
  endloop
endfacet
facet normal 0.0 -1.0 0.0
  outer loop
    vertex 54.730133832519584 17.66646073327428 1.9999999999999998
    vertex 41.73013383251961 17.66646073327428 0.0
    vertex 54.730133832519584 17.66646073327428 0.0
  endloop
endfacet
facet normal 0.0 -1.0 0.0
  outer loop
    vertex 41.73013383251961 17.66646073327428 0.0
    vertex 54.730133832519584 17.66646073327428 1.9999999999999998
    vertex 41.73013383251961 17.66646073327428 1.9999999999999998
  endloop
endfacet
facet normal -1.0 0.0 0.0
  outer loop
    vertex 54.730133832519584 17.66646073327428 1.9999999999999998
    vertex 54.730133832519584 11.666460733274281 0.0
    vertex 54.730133832519584 11.666460733274281 1.9999999999999998
  endloop
endfacet
facet normal -1.0 0.0 0.0
  outer loop
    vertex 54.730133832519584 11.666460733274281 0.0
    vertex 54.730133832519584 17.66646073327428 1.9999999999999998
    vertex 54.730133832519584 17.66646073327428 0.0
  endloop
endfacet
facet normal -0.0 1.0 -0.0
  outer loop
    vertex 41.73013383251961 11.666460733274281 1.9999999999999998
    vertex 54.730133832519584 11.666460733274281 0.0
    vertex 41.73013383251961 11.666460733274281 0.0
  endloop
endfacet
facet normal -0.0 1.0 -0.0
  outer loop
    vertex 54.730133832519584 11.666460733274281 0.0
    vertex 41.73013383251961 11.666460733274281 1.9999999999999998
    vertex 54.730133832519584 11.666460733274281 1.9999999999999998
  endloop
endfacet
endsolid Case top half
