solid Case bottom half
facet normal -6.862959269265553e-05 3.0388443073913226e-05 -0.9999999971832609
  outer loop
    vertex -1.9999999999999998 31.0 0.0
    vertex 0.0 28.999999999999996 0.0
    vertex -1.9999999999999998 -1.9999999999999998 0.0
  endloop
endfacet
facet normal -6.862959269265553e-05 3.0388443073913226e-05 -0.9999999971832609
  outer loop
    vertex 0.0 28.999999999999996 0.0
    vertex -1.9999999999999998 31.0 0.0
    vertex 65.0 31.0 0.0
  endloop
endfacet
facet normal -6.862959269265553e-05 3.0388443073913226e-05 -0.9999999971832609
  outer loop
    vertex 0.0 28.999999999999996 0.0
    vertex 65.0 31.0 0.0
    vertex 63.0 28.999999999999996 0.0
  endloop
endfacet
facet normal -6.862959269265553e-05 3.0388443073913226e-05 -0.9999999971832609
  outer loop
    vertex 63.0 28.999999999999996 0.0
    vertex 65.0 31.0 0.0
    vertex 63.0 22.5 0.0
  endloop
endfacet
facet normal -6.862959269265553e-05 3.0388443073913226e-05 -0.9999999971832609
  outer loop
    vertex 63.0 22.5 0.0
    vertex 65.0 31.0 0.0
    vertex 65.0 22.5 0.0
  endloop
endfacet
facet normal -6.862959269265553e-05 3.0388443073913226e-05 -0.9999999971832609
  outer loop
    vertex 65.0 10.5 0.0
    vertex 63.0 0.0 0.0
    vertex 63.0 10.5 0.0
  endloop
endfacet
facet normal -6.862959269265553e-05 3.0388443073913226e-05 -0.9999999971832609
  outer loop
    vertex -1.9999999999999998 -1.9999999999999998 0.0
    vertex 0.0 0.0 0.0
    vertex 65.0 -1.9999999999999991 0.0
  endloop
endfacet
facet normal -6.862959269265553e-05 3.0388443073913226e-05 -0.9999999971832609
  outer loop
    vertex 0.0 0.0 0.0
    vertex -1.9999999999999998 -1.9999999999999998 0.0
    vertex 0.0 28.999999999999996 0.0
  endloop
endfacet
facet normal -6.862959269265553e-05 3.0388443073913226e-05 -0.9999999971832609
  outer loop
    vertex 65.0 -1.9999999999999991 0.0
    vertex 0.0 0.0 0.0
    vertex 63.0 0.0 0.0
  endloop
endfacet
facet normal -6.862959269265553e-05 3.0388443073913226e-05 -0.9999999971832609
  outer loop
    vertex 65.0 -1.9999999999999991 0.0
    vertex 63.0 0.0 0.0
    vertex 65.0 10.5 0.0
  endloop
endfacet
facet normal 1.0 0.0 0.0
  outer loop
    vertex 65.0 31.0 0.0
    vertex 65.0 22.5 12.0
    vertex 65.0 22.5 0.0
  endloop
endfacet
facet normal 1.0 0.0 0.0
  outer loop
    vertex 65.0 22.5 12.0
    vertex 65.0 31.0 0.0
    vertex 65.0 31.0 12.0
  endloop
endfacet
facet normal 1.773720881615452e-05 -0.9999999998407529 1.971273184702312e-06
  outer loop
    vertex 65.0 22.5 12.0
    vertex 63.0 22.5 0.0
    vertex 65.0 22.5 0.0
  endloop
endfacet
facet normal 1.773720881615452e-05 -0.9999999998407529 1.971273184702312e-06
  outer loop
    vertex 63.0 22.5 0.0
    vertex 65.0 22.5 12.0
    vertex 63.00023953881972 22.49988567465422 1.9999999823877173
  endloop
endfacet
facet normal 1.773720881615452e-05 -0.9999999998407529 1.971273184702312e-06
  outer loop
    vertex 63.00023953881972 22.49988567465422 1.9999999823877173
    vertex 65.0 22.5 12.0
    vertex 63.0 22.5 12.0
  endloop
endfacet
facet normal -1.7737208815935764e-05 0.9999999998407529 -1.971273184678e-06
  outer loop
    vertex 63.00023953881972 10.499885674654223 1.9999999823877173
    vertex 65.0 10.5 0.0
    vertex 63.0 10.5 0.0
  endloop
endfacet
facet normal -1.7737208815935764e-05 0.9999999998407529 -1.971273184678e-06
  outer loop
    vertex 65.0 10.5 0.0
    vertex 63.00023953881972 10.499885674654223 1.9999999823877173
    vertex 65.0 10.5 12.0
  endloop
endfacet
facet normal -1.7737208815935764e-05 0.9999999998407529 -1.971273184678e-06
  outer loop
    vertex 65.0 10.5 12.0
    vertex 63.00023953881972 10.499885674654223 1.9999999823877173
    vertex 63.0 10.5 12.0
  endloop
endfacet
facet normal 1.0 0.0 0.0
  outer loop
    vertex 65.0 10.5 0.0
    vertex 65.0 -1.9999999999999991 12.0
    vertex 65.0 -1.9999999999999991 0.0
  endloop
endfacet
facet normal 1.0 0.0 0.0
  outer loop
    vertex 65.0 -1.9999999999999991 12.0
    vertex 65.0 10.5 0.0
    vertex 65.0 10.5 12.0
  endloop
endfacet
facet normal 1.0522262994581708e-17 -1.0 0.0
  outer loop
    vertex 65.0 -1.9999999999999991 12.0
    vertex -1.9999999999999998 -1.9999999999999998 0.0
    vertex 65.0 -1.9999999999999991 0.0
  endloop
endfacet
facet normal 1.0522262994581708e-17 -1.0 0.0
  outer loop
    vertex -1.9999999999999998 -1.9999999999999998 0.0
    vertex 65.0 -1.9999999999999991 12.0
    vertex -1.9999999999999998 -1.9999999999999998 12.0
  endloop
endfacet
facet normal -1.0 0.0 0.0
  outer loop
    vertex -1.9999999999999998 31.0 12.0
    vertex -1.9999999999999998 28.999999999999996 1.9999999999999998
    vertex -1.9999999999999998 28.999999999999996 12.0
  endloop
endfacet
facet normal -1.0 0.0 0.0
  outer loop
    vertex -1.9999999999999998 18.0 12.0
    vertex -1.9999999999999998 -1.9999999999999998 0.0
    vertex -1.9999999999999998 -1.9999999999999998 12.0
  endloop
endfacet
facet normal -1.0 0.0 0.0
  outer loop
    vertex -1.9999999999999998 -1.9999999999999998 0.0
    vertex -1.9999999999999998 18.0 12.0
    vertex -1.9999999999999998 18.0 1.9999999999999998
  endloop
endfacet
facet normal -1.0 0.0 0.0
  outer loop
    vertex -1.9999999999999998 -1.9999999999999998 0.0
    vertex -1.9999999999999998 18.0 1.9999999999999998
    vertex -1.9999999999999998 31.0 0.0
  endloop
endfacet
facet normal -1.0 0.0 0.0
  outer loop
    vertex -1.9999999999999998 31.0 0.0
    vertex -1.9999999999999998 18.0 1.9999999999999998
    vertex -1.9999999999999998 28.999999999999996 1.9999999999999998
  endloop
endfacet
facet normal -1.0 0.0 0.0
  outer loop
    vertex -1.9999999999999998 31.0 0.0
    vertex -1.9999999999999998 28.999999999999996 1.9999999999999998
    vertex -1.9999999999999998 31.0 12.0
  endloop
endfacet
facet normal -0.0 1.0 0.0
  outer loop
    vertex -1.9999999999999998 31.0 12.0
    vertex 65.0 31.0 0.0
    vertex -1.9999999999999998 31.0 0.0
  endloop
endfacet
facet normal -0.0 1.0 0.0
  outer loop
    vertex 65.0 31.0 0.0
    vertex -1.9999999999999998 31.0 12.0
    vertex 65.0 31.0 12.0
  endloop
endfacet
facet normal -0.0 -0.0 1.0
  outer loop
    vertex 0.0 18.0 1.9999999999999998
    vertex -1.9999999999999998 28.999999999999996 1.9999999999999998
    vertex -1.9999999999999998 18.0 1.9999999999999998
  endloop
endfacet
facet normal -0.0 -0.0 1.0
  outer loop
    vertex -1.9999999999999998 28.999999999999996 1.9999999999999998
    vertex 0.0 18.0 1.9999999999999998
    vertex 0.0 28.999999999999996 1.9999999999999998
  endloop
endfacet
facet normal 0.0 0.0 1.0
  outer loop
    vertex 0.0 18.0 12.0
    vertex -1.9999999999999998 18.0 12.0
    vertex 0.0 0.0 12.0
  endloop
endfacet
facet normal 0.0 0.0 1.0
  outer loop
    vertex -1.9999999999999998 -1.9999999999999998 12.0
    vertex 0.0 0.0 12.0
    vertex -1.9999999999999998 18.0 12.0
  endloop
endfacet
facet normal 0.0 0.0 1.0
  outer loop
    vertex 0.0 0.0 12.0
    vertex -1.9999999999999998 -1.9999999999999998 12.0
    vertex 65.0 -1.9999999999999991 12.0
  endloop
endfacet
facet normal 0.0 0.0 1.0
  outer loop
    vertex 0.0 0.0 12.0
    vertex 65.0 -1.9999999999999991 12.0
    vertex 63.0 0.0 12.0
  endloop
endfacet
facet normal 0.0 0.0 1.0
  outer loop
    vertex 63.0 0.0 12.0
    vertex 65.0 -1.9999999999999991 12.0
    vertex 63.0 10.5 12.0
  endloop
endfacet
facet normal 0.0 0.0 1.0
  outer loop
    vertex 63.0 10.5 12.0
    vertex 65.0 -1.9999999999999991 12.0
    vertex 65.0 10.5 12.0
  endloop
endfacet
facet normal 0.9999999999826861 4.43430613863836e-06 3.868462736540839e-06
  outer loop
    vertex 0.0 18.0 1.9999999999999998
    vertex 0.0 0.0 12.0
    vertex 0.00023953881972449203 -0.00011432534577759857 1.9999999823877173
  endloop
endfacet
facet normal 0.9999999999826861 4.43430613863836e-06 3.868462736540839e-06
  outer loop
    vertex 0.0 0.0 12.0
    vertex 0.0 18.0 1.9999999999999998
    vertex 0.0 18.0 12.0
  endloop
endfacet
facet normal -0.0 1.0 -0.0
  outer loop
    vertex -1.9999999999999998 18.0 12.0
    vertex 0.0 18.0 1.9999999999999998
    vertex -1.9999999999999998 18.0 1.9999999999999998
  endloop
endfacet
facet normal -0.0 1.0 -0.0
  outer loop
    vertex 0.0 18.0 1.9999999999999998
    vertex -1.9999999999999998 18.0 12.0
    vertex 0.0 18.0 12.0
  endloop
endfacet
facet normal -0.9999999999701463 -1.9230446948500098e-10 -7.727058725055713e-06
  outer loop
    vertex 63.0 0.0 12.0
    vertex 63.00023953881972 10.499885674654223 1.9999999823877173
    vertex 63.00023953881972 -0.00011432534577759857 1.9999999823877173
  endloop
endfacet
facet normal -0.9999999999701463 -1.9230446948500098e-10 -7.727058725055713e-06
  outer loop
    vertex 63.00023953881972 10.499885674654223 1.9999999823877173
    vertex 63.0 0.0 12.0
    vertex 63.0 10.5 12.0
  endloop
endfacet
facet normal 5.341790819543596e-12 0.9999999999931997 -3.687914391903837e-06
  outer loop
    vertex 0.0 0.0 12.0
    vertex 63.00023953881972 -0.00011432534577759857 1.9999999823877173
    vertex 0.00023953881972449203 -0.00011432534577759857 1.9999999823877173
  endloop
endfacet
facet normal 5.341790819543596e-12 0.9999999999931997 -3.687914391903837e-06
  outer loop
    vertex 63.00023953881972 -0.00011432534577759857 1.9999999823877173
    vertex 0.0 0.0 12.0
    vertex 63.0 0.0 12.0
  endloop
endfacet
facet normal 0.0 0.0 1.0
  outer loop
    vertex 65.0 22.5 12.0
    vertex 63.0 28.999999999999996 12.0
    vertex 63.0 22.5 12.0
  endloop
endfacet
facet normal 0.0 0.0 1.0
  outer loop
    vertex 0.0 28.999999999999996 12.0
    vertex -1.9999999999999998 31.0 12.0
    vertex -1.9999999999999998 28.999999999999996 12.0
  endloop
endfacet
facet normal 0.0 0.0 1.0
  outer loop
    vertex -1.9999999999999998 31.0 12.0
    vertex 0.0 28.999999999999996 12.0
    vertex 65.0 31.0 12.0
  endloop
endfacet
facet normal 0.0 0.0 1.0
  outer loop
    vertex 65.0 31.0 12.0
    vertex 0.0 28.999999999999996 12.0
    vertex 63.0 28.999999999999996 12.0
  endloop
endfacet
facet normal 0.0 0.0 1.0
  outer loop
    vertex 65.0 31.0 12.0
    vertex 63.0 28.999999999999996 12.0
    vertex 65.0 22.5 12.0
  endloop
endfacet
facet normal 0.0 -1.0 0.0
  outer loop
    vertex 0.0 28.999999999999996 12.0
    vertex -1.9999999999999998 28.999999999999996 1.9999999999999998
    vertex 0.0 28.999999999999996 1.9999999999999998
  endloop
endfacet
facet normal 0.0 -1.0 0.0
  outer loop
    vertex -1.9999999999999998 28.999999999999996 1.9999999999999998
    vertex 0.0 28.999999999999996 12.0
    vertex -1.9999999999999998 28.999999999999996 12.0
  endloop
endfacet
facet normal -6.04898111322571e-07 -0.9999999999981171 1.8439548600076908e-06
  outer loop
    vertex 63.0 28.999999999999996 12.0
    vertex 0.0 28.999999999999996 1.9999999999999998
    vertex 63.00023953881972 28.99988567465422 1.9999999823877173
  endloop
endfacet
facet normal -6.04898111322571e-07 -0.9999999999981171 1.8439548600076908e-06
  outer loop
    vertex 0.0 28.999999999999996 1.9999999999999998
    vertex 63.0 28.999999999999996 12.0
    vertex 0.0 28.999999999999996 12.0
  endloop
endfacet
facet normal -0.9999999999701463 -5.018122546228779e-10 -7.727058723914275e-06
  outer loop
    vertex 63.0 22.5 12.0
    vertex 63.00023953881972 28.99988567465422 1.9999999823877173
    vertex 63.00023953881972 22.49988567465422 1.9999999823877173
  endloop
endfacet
facet normal -0.9999999999701463 -5.018122546228779e-10 -7.727058723914275e-06
  outer loop
    vertex 63.00023953881972 28.99988567465422 1.9999999823877173
    vertex 63.0 22.5 12.0
    vertex 63.0 28.999999999999996 12.0
  endloop
endfacet
facet normal -0.00011976940986224601 5.716267288879929e-05 -0.9999999911938587
  outer loop
    vertex 63.0 28.999999999999996 0.0
    vertex 0.0 0.0 0.0
    vertex 0.0 28.999999999999996 0.0
  endloop
endfacet
facet normal -0.00011976940986224601 5.716267288879929e-05 -0.9999999911938587
  outer loop
    vertex 0.0 0.0 0.0
    vertex 63.0 28.999999999999996 0.0
    vertex 63.0 0.0 0.0
  endloop
endfacet
facet normal -0.00011976940986224601 5.716267288879929e-05 -0.9999999911938587
  outer loop
    vertex 63.0 0.0 0.0
    vertex 63.0 28.999999999999996 0.0
    vertex 63.0 22.5 0.0
  endloop
endfacet
facet normal -0.00011976940986224601 5.716267288879929e-05 -0.9999999911938587
  outer loop
    vertex 63.0 0.0 0.0
    vertex 63.0 22.5 0.0
    vertex 63.0 10.5 0.0
  endloop
endfacet
facet normal 1.8558377292312064e-10 -2.982439197255295e-10 1.0
  outer loop
    vertex 0.00023953881972449203 -0.00011432534577759857 1.9999999823877173
    vertex 0.0 28.999999999999996 1.9999999999999998
    vertex 0.0 18.0 1.9999999999999998
  endloop
endfacet
facet normal 1.8558377292312064e-10 -2.982439197255295e-10 1.0
  outer loop
    vertex 0.0 28.999999999999996 1.9999999999999998
    vertex 0.00023953881972449203 -0.00011432534577759857 1.9999999823877173
    vertex 63.00023953881972 28.99988567465422 1.9999999823877173
  endloop
endfacet
facet normal 1.8558377292312064e-10 -2.982439197255295e-10 1.0
  outer loop
    vertex 63.00023953881972 28.99988567465422 1.9999999823877173
    vertex 0.00023953881972449203 -0.00011432534577759857 1.9999999823877173
    vertex 63.00023953881972 -0.00011432534577759857 1.9999999823877173
  endloop
endfacet
facet normal 1.8558377292312064e-10 -2.982439197255295e-10 1.0
  outer loop
    vertex 63.00023953881972 28.99988567465422 1.9999999823877173
    vertex 63.00023953881972 -0.00011432534577759857 1.9999999823877173
    vertex 63.00023953881972 10.499885674654223 1.9999999823877173
  endloop
endfacet
facet normal 1.8558377292312064e-10 -2.982439197255295e-10 1.0
  outer loop
    vertex 63.00023953881972 28.99988567465422 1.9999999823877173
    vertex 63.00023953881972 10.499885674654223 1.9999999823877173
    vertex 63.00023953881972 22.49988567465422 1.9999999823877173
  endloop
endfacet
facet normal 0.9999999928276442 -3.441459235225563e-22 -0.00011976941005734725
  outer loop
    vertex 63.0 10.5 0.0
    vertex 63.00023953881972 22.49988567465422 1.9999999823877173
    vertex 63.00023953881972 10.499885674654223 1.9999999823877173
  endloop
endfacet
facet normal 0.9999999928276442 -3.441459235225563e-22 -0.00011976941005734725
  outer loop
    vertex 63.00023953881972 22.49988567465422 1.9999999823877173
    vertex 63.0 10.5 0.0
    vertex 63.0 22.5 0.0
  endloop
endfacet
endsolid Case bottom half
